HIERARCHY
ROOT Hips
{
  OFFSET 0.000000 0.000000 0.000000
  CHANNELS 6 Xposition Yposition Zposition Xrotation Yrotation Zrotation
  JOINT Spine
  {
    OFFSET 0.000000 0.000000 0.000000
    CHANNELS 3 Xrotation Yrotation Zrotation
    JOINT Chest
    {
      OFFSET 0.000000 0.000000 0.000000
      CHANNELS 3 Xrotation Yrotation Zrotation
      JOINT Neck
      {
        OFFSET 0.000000 0.000000 0.000000
        CHANNELS 3 Xrotation Yrotation Zrotation
        JOINT Head
        {
          OFFSET 0.000000 0.000000 0.000000
          CHANNELS 3 Xrotation Yrotation Zrotation
          End Site
          {
            OFFSET 0.000000 -10.000000 0.000000
          }
        }
      }
      JOINT LeftShoulder
      {
        OFFSET 0.000000 0.000000 0.000000
        CHANNELS 3 Xrotation Yrotation Zrotation
        JOINT LeftArm
        {
          OFFSET 0.000000 0.000000 0.000000
          CHANNELS 3 Xrotation Yrotation Zrotation
          JOINT LeftForeArm
          {
            OFFSET 0.000000 0.000000 0.000000
            CHANNELS 3 Xrotation Yrotation Zrotation
            JOINT LeftHand
            {
              OFFSET 0.000000 0.000000 0.000000
              CHANNELS 3 Xrotation Yrotation Zrotation
              End Site
              {
                OFFSET 0.000000 -10.000000 0.000000
              }
            }
          }
        }
      }
      JOINT RightShoulder
      {
        OFFSET 0.000000 0.000000 0.000000
        CHANNELS 3 Xrotation Yrotation Zrotation
        JOINT RightArm
        {
          OFFSET 0.000000 0.000000 0.000000
          CHANNELS 3 Xrotation Yrotation Zrotation
          JOINT RightForeArm
          {
            OFFSET 0.000000 0.000000 0.000000
            CHANNELS 3 Xrotation Yrotation Zrotation
            JOINT RightHand
            {
              OFFSET 0.000000 0.000000 0.000000
              CHANNELS 3 Xrotation Yrotation Zrotation
              End Site
              {
                OFFSET 0.000000 -10.000000 0.000000
              }
            }
          }
        }
      }
    }
  }
  JOINT LeftUpLeg
  {
    OFFSET 0.000000 0.000000 0.000000
    CHANNELS 3 Xrotation Yrotation Zrotation
    JOINT LeftLeg
    {
      OFFSET 0.000000 0.000000 0.000000
      CHANNELS 3 Xrotation Yrotation Zrotation
      JOINT LeftFoot
      {
        OFFSET 0.000000 0.000000 0.000000
        CHANNELS 3 Xrotation Yrotation Zrotation
        JOINT LeftToeBase
        {
          OFFSET 0.000000 0.000000 0.000000
          CHANNELS 3 Xrotation Yrotation Zrotation
          End Site
          {
            OFFSET 0.000000 -10.000000 0.000000
          }
        }
      }
    }
  }
  JOINT RightUpLeg
  {
    OFFSET 0.000000 0.000000 0.000000
    CHANNELS 3 Xrotation Yrotation Zrotation
    JOINT RightLeg
    {
      OFFSET 0.000000 0.000000 0.000000
      CHANNELS 3 Xrotation Yrotation Zrotation
      JOINT RightFoot
      {
        OFFSET 0.000000 0.000000 0.000000
        CHANNELS 3 Xrotation Yrotation Zrotation
        JOINT RightToeBase
        {
          OFFSET 0.000000 0.000000 0.000000
          CHANNELS 3 Xrotation Yrotation Zrotation
          End Site
          {
            OFFSET 0.000000 -10.000000 0.000000
          }
        }
      }
    }
  }
}
MOTION
Frames: 13
Frame Time: 0.041667
0.013830 6.121042 -0.007297 0.000000 0.000000 0.000000 115.448815 -0.214413 0.000000 0.000000 -0.000000 0.000000 154.827227 0.465808 0.000000 0.000000 -0.000000 0.000000 -13.963204 -75.896313 0.000000 -65.553594 -7.725125 0.000000 -126.865551 -2.039387 0.000000 -138.815048 3.096383 0.000000 166.036796 75.896313 0.000000 -80.997600 7.965004 0.000000 -130.304188 2.448507 0.000000 -142.251724 -0.548082 0.000000 -15.006608 -65.881154 0.000000 -93.724654 1.767253 0.000000 -35.402263 0.951516 0.000000 -136.270706 2.491649 0.000000 164.993392 65.881154 0.000000 -104.095528 0.534077 0.000000 -18.243383 -0.235742 0.000000 -104.718404 4.281303 0.000000
0.013761 5.903339 -0.008262 0.000000 0.000000 0.000000 110.519516 -0.281839 0.000000 0.000000 -0.000000 0.000000 154.955111 0.733545 0.000000 0.000000 -0.000000 0.000000 -21.764483 -84.838162 0.000000 -69.048405 -7.842135 0.000000 -129.030987 -1.843066 0.000000 -138.663153 3.017445 0.000000 158.235517 84.838162 0.000000 -85.502555 8.260278 0.000000 -135.113600 2.187858 0.000000 -142.367053 -0.611760 0.000000 -16.593050 -67.680455 0.000000 -89.160190 1.923379 0.000000 -34.119382 0.802087 0.000000 -138.350712 0.755379 0.000000 163.406950 67.680455 0.000000 -90.676219 0.562699 0.000000 -23.569784 -0.297730 0.000000 -125.391285 3.093753 0.000000
0.015706 5.909343 -0.009131 0.000000 0.000000 0.000000 113.872212 -0.314190 0.000000 0.000000 -0.000000 0.000000 155.783837 0.818802 0.000000 0.000000 -0.000000 0.000000 -173.214403 -84.842245 0.000000 -70.148880 -8.163189 0.000000 -131.212345 -1.462518 0.000000 -139.938087 2.898407 0.000000 6.785597 84.842245 0.000000 -82.587100 8.326196 0.000000 -134.429885 2.167633 0.000000 -143.044075 -0.332127 0.000000 -30.422969 -77.104619 0.000000 -88.325932 1.976719 0.000000 -35.264405 0.780907 0.000000 -139.940530 0.471525 0.000000 149.577031 77.104619 0.000000 -87.241686 0.575756 0.000000 -29.348389 -0.398191 0.000000 -136.634018 2.417165 0.000000
0.016412 5.983844 -0.009196 0.000000 0.000000 0.000000 116.166985 -0.336497 0.000000 0.000000 -0.000000 0.000000 156.498808 0.868748 0.000000 0.000000 -0.000000 0.000000 177.191599 -83.968875 0.000000 -68.346328 -8.556421 0.000000 -130.801261 -1.043661 0.000000 -140.200300 3.010704 0.000000 -2.808401 83.968875 0.000000 -81.982897 8.380991 0.000000 -135.597533 2.144526 0.000000 -143.631387 -0.131676 0.000000 -30.148417 -77.064512 0.000000 -86.892177 2.006248 0.000000 -34.567795 0.872122 0.000000 -139.279186 1.538153 0.000000 149.851583 77.064512 0.000000 -87.277423 0.570578 0.000000 -33.553712 -0.582955 0.000000 -140.267065 2.330463 0.000000
0.023042 6.103361 -0.008784 0.000000 0.000000 0.000000 115.802394 -0.388510 0.000000 0.000000 -0.000000 0.000000 156.373545 1.026529 0.000000 0.000000 -0.000000 0.000000 160.376995 -85.498034 0.000000 -73.110449 -9.082990 0.000000 -133.457950 -0.593721 0.000000 -140.588168 3.275911 0.000000 -19.623005 85.498034 0.000000 -82.923946 8.382340 0.000000 -136.036412 2.091009 0.000000 -144.051245 0.148054 0.000000 -27.074420 -76.050580 0.000000 -87.300646 2.060391 0.000000 -36.719009 0.929250 0.000000 -143.041948 0.818969 0.000000 152.925580 76.050580 0.000000 -130.178788 0.389926 0.000000 -43.954306 -0.681964 0.000000 -143.628514 2.454044 0.000000
0.042793 6.184551 -0.008728 0.000000 0.000000 0.000000 116.473330 -0.384898 0.000000 0.000000 -0.000000 0.000000 156.152965 1.162422 0.000000 0.000000 -0.000000 0.000000 156.322798 -84.716809 0.000000 -73.846479 -9.674370 0.000000 -133.946273 -0.127748 0.000000 -140.521091 3.595419 0.000000 -23.677202 84.716809 0.000000 -84.750915 8.114406 0.000000 -135.609661 2.246390 0.000000 -144.591255 0.505803 0.000000 -25.917150 -76.098812 0.000000 -87.424749 2.187290 0.000000 -36.200865 1.063947 0.000000 -140.783342 1.350692 0.000000 154.082850 76.098812 0.000000 -124.999155 0.360402 0.000000 -43.987760 -0.594816 0.000000 -142.544058 2.483794 0.000000
0.058833 6.200945 -0.008423 0.000000 0.000000 0.000000 113.064950 -0.409447 0.000000 0.000000 -0.000000 0.000000 155.338100 1.302667 0.000000 0.000000 -0.000000 0.000000 158.431924 -82.635401 0.000000 -76.722582 -10.263297 0.000000 -134.072561 0.398577 0.000000 -141.424457 4.548259 0.000000 -21.568076 82.635401 0.000000 -86.236215 7.915629 0.000000 -137.935166 2.232263 0.000000 -146.032251 0.512803 0.000000 -24.537928 -75.566787 0.000000 -87.903543 2.282315 0.000000 -36.309922 1.283338 0.000000 -138.158662 0.573364 0.000000 155.462072 75.566787 0.000000 -131.990547 0.188301 0.000000 -51.550145 -0.509267 0.000000 -147.146121 2.188348 0.000000
0.068240 6.102414 -0.008238 0.000000 0.000000 0.000000 112.903683 -0.430392 0.000000 0.000000 -0.000000 0.000000 155.430145 1.423484 0.000000 0.000000 -0.000000 0.000000 148.965716 -83.955904 0.000000 -76.220980 -10.654171 0.000000 -138.897720 0.861827 0.000000 -144.705521 5.848700 0.000000 -31.034284 83.955904 0.000000 -84.801817 7.698863 0.000000 -136.813209 2.312888 0.000000 -145.364802 0.523642 0.000000 -27.361492 -75.145693 0.000000 -88.135930 2.288973 0.000000 -35.190375 1.387937 0.000000 -138.361978 0.912800 0.000000 152.638508 75.145693 0.000000 -121.746819 0.027866 0.000000 -48.931548 -0.373558 0.000000 -146.974298 2.157171 0.000000
0.083742 5.773905 -0.008102 0.000000 0.000000 0.000000 112.594868 -0.371724 0.000000 0.000000 -0.000000 0.000000 155.373101 1.454159 0.000000 0.000000 -0.000000 0.000000 124.015401 -85.157704 0.000000 -76.426699 -10.779931 0.000000 -142.893653 0.994090 0.000000 -148.059160 6.917681 0.000000 -55.984599 85.157704 0.000000 -84.187591 7.393478 0.000000 -136.717475 2.332246 0.000000 -143.710979 0.555475 0.000000 -22.174845 -75.398176 0.000000 -86.921023 2.338720 0.000000 -36.762571 1.393754 0.000000 -145.190722 0.908251 0.000000 157.825155 75.398176 0.000000 -92.582779 -0.399397 0.000000 -47.060284 -0.226081 0.000000 -159.524470 1.079112 0.000000
0.105996 5.275425 -0.008407 0.000000 0.000000 0.000000 110.761241 -0.294656 0.000000 0.000000 -0.000000 0.000000 155.283769 1.482700 0.000000 0.000000 -0.000000 0.000000 123.827451 -85.061648 0.000000 -76.829943 -11.193647 0.000000 -142.850300 1.250905 0.000000 -148.105731 8.591865 0.000000 -56.172549 85.061648 0.000000 -83.901071 7.155761 0.000000 -136.101753 2.398902 0.000000 -143.392269 0.482266 0.000000 -19.821977 -75.876544 0.000000 -85.331318 2.398738 0.000000 -35.285196 1.423664 0.000000 -146.130480 0.920377 0.000000 160.178023 75.876544 0.000000 -81.770804 -0.759548 0.000000 -42.285966 -0.075104 0.000000 -149.639887 2.280405 0.000000
0.129545 4.942404 -0.009462 0.000000 0.000000 0.000000 108.167787 -0.233665 0.000000 0.000000 -0.000000 0.000000 155.072891 1.557278 0.000000 0.000000 -0.000000 0.000000 39.045740 -83.612111 0.000000 -77.053039 -11.531420 0.000000 -146.052073 1.321912 0.000000 -149.708743 9.845041 0.000000 -140.954260 83.612111 0.000000 -84.041470 7.052648 0.000000 -135.945683 2.414928 0.000000 -143.675911 0.439055 0.000000 -9.365202 -71.390082 0.000000 -84.921226 2.337262 0.000000 -35.901862 1.512993 0.000000 -147.348131 0.352226 0.000000 170.634798 71.390082 0.000000 -82.775465 -1.401359 0.000000 -39.276680 0.493892 0.000000 -145.814048 0.891904 0.000000
0.162183 4.729125 -0.009548 0.000000 0.000000 0.000000 108.536752 -0.131549 0.000000 0.000000 -0.000000 0.000000 154.374718 1.592755 0.000000 0.000000 -0.000000 0.000000 29.953491 -81.283690 0.000000 -78.685424 -11.696373 0.000000 -148.907384 1.324221 0.000000 -151.144866 10.694668 0.000000 -150.046509 81.283690 0.000000 -83.933251 6.883319 0.000000 -134.883263 2.442845 0.000000 -142.995224 0.374731 0.000000 -2.836128 -65.432766 0.000000 -80.244082 2.367197 0.000000 -34.164447 1.549923 0.000000 -145.399156 0.408654 0.000000 177.163872 65.432766 0.000000 -83.640903 -2.019936 0.000000 -37.982134 0.564948 0.000000 -142.753596 1.396233 0.000000
0.199029 4.528777 -0.009722 0.000000 0.000000 0.000000 109.161777 0.012584 0.000000 0.000000 -0.000000 0.000000 154.143474 1.617034 0.000000 0.000000 -0.000000 0.000000 40.398775 -83.933180 0.000000 -76.490700 -11.563835 0.000000 -148.960322 1.487842 0.000000 -150.346108 11.518380 0.000000 -139.601225 83.933180 0.000000 -84.303577 6.612079 0.000000 -134.281427 2.385160 0.000000 -141.322858 0.314324 0.000000 -0.136896 -65.186176 0.000000 -82.247593 2.464890 0.000000 -34.133529 1.451865 0.000000 -141.690458 0.063650 0.000000 179.863104 65.186176 0.000000 -79.063129 -2.170088 0.000000 -37.564027 0.814160 0.000000 -142.555072 0.851121 0.000000
